<?xml version="1.0" encoding="UTF-8"?>
<svg width="5e3" height="5e3" version="1.1" viewBox="0 0 1322.9166 1322.9167" xmlns="http://www.w3.org/2000/svg" xmlns:cc="http://creativecommons.org/ns#" xmlns:dc="http://purl.org/dc/elements/1.1/" xmlns:rdf="http://www.w3.org/1999/02/22-rdf-syntax-ns#">
<metadata>
<rdf:RDF>
<cc:Work rdf:about="">
<dc:format>image/svg+xml</dc:format>
<dc:type rdf:resource="http://purl.org/dc/dcmitype/StillImage"/>
<dc:title/>
</cc:Work>
</rdf:RDF>
</metadata>
<g shape-rendering="auto">
<path d="m1322.9 1143v179.92h-784.49c208.74-116.91 341.1-88.333 453.17-67.281 56.08 10.539 107.08 19.192 160.01 6.7677 52.866-12.412 107.64-45.864 171.3-119.4z" color="#000000" color-rendering="auto" dominant-baseline="auto" fill="#214e6e" image-rendering="auto" solid-color="#000000" stop-color="#000000" style="font-feature-settings:normal;font-variant-alternates:normal;font-variant-caps:normal;font-variant-east-asian:normal;font-variant-ligatures:normal;font-variant-numeric:normal;font-variant-position:normal;font-variation-settings:normal;inline-size:0;isolation:auto;mix-blend-mode:normal;shape-margin:0;shape-padding:0;text-decoration-color:#000000;text-decoration-line:none;text-decoration-style:solid;text-indent:0;text-orientation:mixed;text-transform:none;white-space:normal"/>
<path d="m1322.9 904.35v245.12c-62.334 70.872-115.92 103.05-167.62 114.98-51.713 11.937-101.56 3.6248-156.41-6.5114-109.69-20.264-239.39-47.792-443.88 64.981h-319c28.091-135.26 85.312-203.95 161.53-237.22 76.251-33.279 171.54-31.086 275.7-24.52 208.23 13.132 451.91 43.75 649.68-156.83z" color="#000000" color-rendering="auto" dominant-baseline="auto" fill="#255f87" image-rendering="auto" solid-color="#000000" stop-color="#000000" style="font-feature-settings:normal;font-variant-alternates:normal;font-variant-caps:normal;font-variant-east-asian:normal;font-variant-ligatures:normal;font-variant-numeric:normal;font-variant-position:normal;font-variation-settings:normal;inline-size:0;isolation:auto;mix-blend-mode:normal;shape-margin:0;shape-padding:0;text-decoration-color:#000000;text-decoration-line:none;text-decoration-style:solid;text-indent:0;text-orientation:mixed;text-transform:none;white-space:normal"/>
<path d="m1322.9 121.71v785.49c-196.01 199.16-437.54 168.77-644.05 155.73-103.26-6.5185-197.77-8.7028-273.44 24.354-75.649 33.047-132.45 101.33-160.3 235.63h-245.13v-220.87c217.89-234.09 458.06-213.96 689.11-267.99 115.53-27.017 228.78-72.583 335.77-177.75 106.89-105.07 207.54-269.63 298.03-534.6z" color="#000000" color-rendering="auto" dominant-baseline="auto" fill="#3b739c" image-rendering="auto" solid-color="#000000" stop-color="#000000" style="font-feature-settings:normal;font-variant-alternates:normal;font-variant-caps:normal;font-variant-east-asian:normal;font-variant-ligatures:normal;font-variant-numeric:normal;font-variant-position:normal;font-variation-settings:normal;inline-size:0;isolation:auto;mix-blend-mode:normal;shape-margin:0;shape-padding:0;text-decoration-color:#000000;text-decoration-line:none;text-decoration-style:solid;text-indent:0;text-orientation:mixed;text-transform:none;white-space:normal"/>
<path d="m846.26 0h476.65v123.2c-90.546 267.33-191.27 433.27-298.22 539.17-106.96 105.91-220.14 151.78-335.65 178.99-230.93 54.404-471.14 34.178-689.05 269.86v-270.94c84.547-281.56 254.3-362.88 423.85-438.21 169.53-75.319 338.87-144.64 422.41-402.08z" color="#000000" color-rendering="auto" dominant-baseline="auto" fill="#5a8fb6" image-rendering="auto" solid-color="#000000" stop-color="#000000" style="font-feature-settings:normal;font-variant-alternates:normal;font-variant-caps:normal;font-variant-east-asian:normal;font-variant-ligatures:normal;font-variant-numeric:normal;font-variant-position:normal;font-variation-settings:normal;inline-size:0;isolation:auto;mix-blend-mode:normal;shape-margin:0;shape-padding:0;text-decoration-color:#000000;text-decoration-line:none;text-decoration-style:solid;text-indent:0;text-orientation:mixed;text-transform:none;white-space:normal"/>
<path d="m415.84 0h438.76c-84.373 258.53-255.29 328.11-426.54 403.79-171.12 75.622-342.55 157.35-428.06 439.7v-548.14c82.9-86.311 167.87-93.69 241.64-112.72 36.89-9.5163 70.982-21.948 100.58-48.632 29.587-26.67 54.68-67.576 73.619-134z" color="#000000" color-rendering="auto" dominant-baseline="auto" fill="#7aaed3" image-rendering="auto" solid-color="#000000" stop-color="#000000" style="font-feature-settings:normal;font-variant-alternates:normal;font-variant-caps:normal;font-variant-east-asian:normal;font-variant-ligatures:normal;font-variant-numeric:normal;font-variant-position:normal;font-variation-settings:normal;inline-size:0;isolation:auto;mix-blend-mode:normal;shape-margin:0;shape-padding:0;text-decoration-color:#000000;text-decoration-line:none;text-decoration-style:solid;text-indent:0;text-orientation:mixed;text-transform:none;white-space:normal"/>
<path d="m0 0h418.04c-19.04 66.561-44.249 107.53-73.956 134.23-29.733 26.728-63.978 39.183-101.07 48.725-74.121 19.067-159.62 26.505-243.01 112.96z" color="#000000" color-rendering="auto" dominant-baseline="auto" fill="#8ab6d5" image-rendering="auto" solid-color="#000000" stop-color="#000000" style="font-feature-settings:normal;font-variant-alternates:normal;font-variant-caps:normal;font-variant-east-asian:normal;font-variant-ligatures:normal;font-variant-numeric:normal;font-variant-position:normal;font-variation-settings:normal;inline-size:0;isolation:auto;mix-blend-mode:normal;shape-margin:0;shape-padding:0;text-decoration-color:#000000;text-decoration-line:none;text-decoration-style:solid;text-indent:0;text-orientation:mixed;text-transform:none;white-space:normal"/>
</g>
</svg>
